<?xml version="1.0"?>
<svg xmlns="http://www.w3.org/2000/svg" version="1.1" width="884.069213867188pt" height="435.705383300781pt" viewBox="-495.419291496277 -251.814677238464 884.069234848022 435.705373764038" preserveAspectRatio="none" xmlns:xlink="http://www.w3.org/1999/xlink">
  <defs>
    <linearGradient id="Gradient0" x1="0.00" y1="0.00" x2="0.71" y2="0.71">
      <stop offset="5%" stop-color="#FFFFFF" stop-opacity="1" />
      <stop offset="95%" stop-color="#C6CEDA" stop-opacity="1" />
    </linearGradient>
  </defs>
  <path d="M-3.13954973220825,-87.5249176025391 L39.3409881591797,-86.9414749145508 " stroke="#6E6E6E" fill="none" stroke-width="1" stroke-opacity="1" />
  <path d="M45.0404510498047,-86.8632049560547 L39.3105010986328,-84.7216873168945 L39.3714752197266,-89.1612701416016 L45.0404510498047,-86.8632049560547 " stroke="none" fill="#6E6E6E" fill-rule="evenodd" stroke-width="0" fill-opacity="1" />
  <path d="M45.0404510498047,-86.8632049560547 L39.3105010986328,-84.7216873168945 L39.3714752197266,-89.1612701416016 L45.0404510498047,-86.8632049560547 " stroke="#6E6E6E" fill="none" stroke-width="1" stroke-opacity="1" />
  <path d="M-41.009593963623,-111.730377197266 L-43.2300415039063,-161.062637329102 " stroke="#6E6E6E" fill="none" stroke-width="1" stroke-opacity="1" />
  <path d="M-43.4863395690918,-166.756881713867 L-41.0122871398926,-161.162460327148 L-45.4477958679199,-160.962829589844 L-43.4863395690918,-166.756881713867 " stroke="none" fill="#6E6E6E" fill-rule="evenodd" stroke-width="0" fill-opacity="1" />
  <path d="M-43.4863395690918,-166.756881713867 L-41.0122871398926,-161.162460327148 L-45.4477958679199,-160.962829589844 L-43.4863395690918,-166.756881713867 " stroke="#6E6E6E" fill="none" stroke-width="1" stroke-opacity="1" />
  <path d="M-140.282897949219,-85.4474258422852 L-82.1043167114258,-86.9450531005859 " stroke="#6E6E6E" fill="none" stroke-width="1" stroke-opacity="1" />
  <path d="M-76.4062042236328,-87.0917434692383 L-82.0471878051758,-84.7257995605469 L-82.1614456176758,-89.1643218994141 L-76.4062042236328,-87.0917434692383 " stroke="none" fill="#6E6E6E" fill-rule="evenodd" stroke-width="0" fill-opacity="1" />
  <path d="M-76.4062042236328,-87.0917434692383 L-82.0471878051758,-84.7257995605469 L-82.1614456176758,-89.1643218994141 L-76.4062042236328,-87.0917434692383 " stroke="#6E6E6E" fill="none" stroke-width="1" stroke-opacity="1" />
  <path d="M-482.25,-242.395385742188 L375.480651855469,-242.395385742188 L375.480529785156,-242.395385742188 C377.551635742188,-242.395401000977 379.230529785156,-240.716461181641 379.230529785156,-238.645401000977 C379.230529785156,-238.645401000977 379.230529785156,-238.645385742188 379.230529785156,-238.645385742188 L379.230651855469,-238.645385742188 L379.230651855469,170.721405029297 L379.230529785156,170.721343994141 C379.230529785156,172.792449951172 377.551635742188,174.471343994141 375.480651855469,174.471343994141 L375.480651855469,174.471405029297 L-482.25,174.471405029297 L-482.25,174.471343994141 C-484.321075439453,174.471405029297 -486,172.792449951172 -486,170.721405029297 L-486,-238.645385742188 L-486.000030517578,-238.645385742188 C-486.000030517578,-240.716461181641 -484.321075439453,-242.395385742188 -482.250030517578,-242.395401000977 " stroke="none" fill="none" fill-rule="evenodd" stroke-width="0" fill-opacity="0" />
  <path d="M-486,-242.395385742188 L379.230651855469,-242.395385742188 L379.230651855469,-228.22216796875 L-486,-228.22216796875  z" stroke="none" fill="#F2E279" fill-rule="evenodd" stroke-width="0" fill-opacity="1" />
  <text x="456.366638183594" y="14.7455377578735" dx="0" dy="0" font-family="Arial" font-size="8.99999973177911pt" fill="#000000" style="text-anchor:start" transform="matrix(0.750000 0.000000 0.000000 0.750000 -486 -242.395385742188)">Step 1: Create multiple viewshed rasters</text>
  <path d="M-486,-228.22216796875 L379.230651855469,-228.22216796875 " stroke="#F2E279" fill="none" stroke-width="5" stroke-opacity="1" />
  <path d="M-482.25,-242.395385742188 L375.480651855469,-242.395385742188 L375.480529785156,-242.395385742188 C377.551635742188,-242.395401000977 379.230529785156,-240.716461181641 379.230529785156,-238.645401000977 C379.230529785156,-238.645401000977 379.230529785156,-238.645385742188 379.230529785156,-238.645385742188 L379.230651855469,-238.645385742188 L379.230651855469,170.721405029297 L379.230529785156,170.721343994141 C379.230529785156,172.792449951172 377.551635742188,174.471343994141 375.480651855469,174.471343994141 L375.480651855469,174.471405029297 L-482.25,174.471405029297 L-482.25,174.471343994141 C-484.321075439453,174.471405029297 -486,172.792449951172 -486,170.721405029297 L-486,-238.645385742188 L-486.000030517578,-238.645385742188 C-486.000030517578,-240.716461181641 -484.321075439453,-242.395385742188 -482.250030517578,-242.395401000977 " stroke="#F2E279" fill="none" stroke-width="5" stroke-opacity="1" />
  <path d="M376.395812988281,-235.308776855469 C376.395812988281,-232.960479736328 374.492126464844,-231.05680847168 372.143920898438,-231.05680847168 C369.795593261719,-231.05680847168 367.891906738281,-232.960479736328 367.891906738281,-235.308776855469 C367.891906738281,-237.657073974609 369.795593261719,-239.560745239258 372.143920898438,-239.560745239258 C374.492126464844,-239.560745239258 376.395812988281,-237.657073974609 376.395812988281,-235.308776855469 " stroke="none" fill="url(#Gradient0)" fill-rule="evenodd" stroke-width="0" fill-opacity="1" />
  <path d="M376.395812988281,-235.308776855469 C376.395812988281,-232.960479736328 374.492126464844,-231.05680847168 372.143920898438,-231.05680847168 C369.795593261719,-231.05680847168 367.891906738281,-232.960479736328 367.891906738281,-235.308776855469 C367.891906738281,-237.657073974609 369.795593261719,-239.560745239258 372.143920898438,-239.560745239258 C374.492126464844,-239.560745239258 376.395812988281,-237.657073974609 376.395812988281,-235.308776855469 " stroke="#808080" fill="none" stroke-width="1" stroke-opacity="1" />
  <path d="M372.143981933594,-236.1591796875 L370.443237304688,-234.458389282227 " stroke="#000000" fill="none" stroke-width="1" stroke-opacity="1" />
  <path d="M372.143981933594,-236.1591796875 L373.844787597656,-234.458389282227 " stroke="#000000" fill="none" stroke-width="1" stroke-opacity="1" />
  <path d="M372.143981933594,-234.6591796875 L371.943237304688,-234.458389282227 " stroke="#000000" fill="none" stroke-width="1" stroke-opacity="1" />
  <path d="M372.143981933594,-234.6591796875 L372.344787597656,-234.458389282227 " stroke="#000000" fill="none" stroke-width="1" stroke-opacity="1" />
  <path d="M-247.461120605469,-53.6680183410645 L-213.205856323242,-68.7403335571289 " stroke="#6E6E6E" fill="none" stroke-width="1" stroke-opacity="1" />
  <path d="M-207.988571166992,-71.0359420776367 L-212.311782836914,-66.7083358764648 L-214.099945068359,-70.772331237793 L-207.988571166992,-71.0359420776367 " stroke="none" fill="#6E6E6E" fill-rule="evenodd" stroke-width="0" fill-opacity="1" />
  <path d="M-207.988571166992,-71.0359420776367 L-212.311782836914,-66.7083358764648 L-214.099945068359,-70.772331237793 L-207.988571166992,-71.0359420776367 " stroke="#6E6E6E" fill="none" stroke-width="1" stroke-opacity="1" />
  <path d="M-350.151153564453,-106.629844665527 L-310.910308837891,-65.1878356933594 " stroke="#6E6E6E" fill="none" stroke-width="1" stroke-opacity="1" />
  <path d="M-306.9912109375,-61.0489082336426 L-312.522308349609,-63.6614532470703 L-309.298278808594,-66.714225769043 L-306.9912109375,-61.0489082336426 " stroke="none" fill="#6E6E6E" fill-rule="evenodd" stroke-width="0" fill-opacity="1" />
  <path d="M-306.9912109375,-61.0489082336426 L-312.522308349609,-63.6614532470703 L-309.298278808594,-66.714225769043 L-306.9912109375,-61.0489082336426 " stroke="#6E6E6E" fill="none" stroke-width="1" stroke-opacity="1" />
  <path d="M-268.359710693359,-170.129333496094 L-280.970306396484,-66.7070083618164 " stroke="#6E6E6E" fill="none" stroke-width="1" stroke-opacity="1" />
  <path d="M-281.660217285156,-61.0489082336426 L-283.173980712891,-66.9757080078125 L-278.766632080078,-66.4383010864258 L-281.660217285156,-61.0489082336426 " stroke="none" fill="#6E6E6E" fill-rule="evenodd" stroke-width="0" fill-opacity="1" />
  <path d="M-281.660217285156,-61.0489082336426 L-283.173980712891,-66.9757080078125 L-278.766632080078,-66.4383010864258 L-281.660217285156,-61.0489082336426 " stroke="#6E6E6E" fill="none" stroke-width="1" stroke-opacity="1" />
  <path d="M193.052444458008,-12.0417623519897 L196.060653686523,30.5508460998535 " stroke="#6E6E6E" fill="none" stroke-width="1" stroke-opacity="1" />
  <path d="M196.46223449707,36.2366790771484 L193.846176147461,30.7072486877441 L198.275146484375,30.3944416046143 L196.46223449707,36.2366790771484 " stroke="none" fill="#6E6E6E" fill-rule="evenodd" stroke-width="0" fill-opacity="1" />
  <path d="M196.46223449707,36.2366790771484 L193.846176147461,30.7072486877441 L198.275146484375,30.3944416046143 L196.46223449707,36.2366790771484 " stroke="#6E6E6E" fill="none" stroke-width="1" stroke-opacity="1" />
  <path d="M212.961227416992,-12.0417623519897 L298.913269042969,82.3425064086914 " stroke="#6E6E6E" fill="none" stroke-width="1" stroke-opacity="1" />
  <path d="M302.751098632813,86.5568695068359 L297.271881103516,83.8372497558594 L300.554626464844,80.8477630615234 L302.751098632813,86.5568695068359 " stroke="none" fill="#6E6E6E" fill-rule="evenodd" stroke-width="0" fill-opacity="1" />
  <path d="M302.751098632813,86.5568695068359 L297.271881103516,83.8372497558594 L300.554626464844,80.8477630615234 L302.751098632813,86.5568695068359 " stroke="#6E6E6E" fill="none" stroke-width="1" stroke-opacity="1" />
  <path d="M112.198310852051,-72.4467544555664 L149.2490234375,-55.2714347839355 " stroke="#6E6E6E" fill="none" stroke-width="1" stroke-opacity="1" />
  <path d="M154.42041015625,-52.8741798400879 L148.315353393555,-53.2573204040527 L150.182693481445,-57.2855529785156 L154.42041015625,-52.8741798400879 " stroke="none" fill="#6E6E6E" fill-rule="evenodd" stroke-width="0" fill-opacity="1" />
  <path d="M154.42041015625,-52.8741798400879 L148.315353393555,-53.2573204040527 L150.182693481445,-57.2855529785156 L154.42041015625,-52.8741798400879 " stroke="#6E6E6E" fill="none" stroke-width="1" stroke-opacity="1" />
  <path d="M-402.615692138672,-38.9048309326172 L148.478637695313,-35.9702110290527 " stroke="#6E6E6E" fill="none" stroke-width="1" stroke-opacity="1" />
  <path d="M154.178573608398,-35.9398574829102 L148.466827392578,-33.7502403259277 L148.490463256836,-38.1901779174805 L154.178573608398,-35.9398574829102 " stroke="none" fill="#6E6E6E" fill-rule="evenodd" stroke-width="0" fill-opacity="1" />
  <path d="M154.178573608398,-35.9398574829102 L148.466827392578,-33.7502403259277 L148.490463256836,-38.1901779174805 L154.178573608398,-35.9398574829102 " stroke="#6E6E6E" fill="none" stroke-width="1" stroke-opacity="1" />
  <path d="M301.83837890625,-81.3835601806641 L233.829940795898,-53.2825927734375 " stroke="#6E6E6E" fill="none" stroke-width="1" stroke-opacity="1" />
  <path d="M228.561935424805,-51.1058654785156 L232.982162475586,-55.334342956543 L234.677719116211,-51.2308464050293 L228.561935424805,-51.1058654785156 " stroke="none" fill="#6E6E6E" fill-rule="evenodd" stroke-width="0" fill-opacity="1" />
  <path d="M228.561935424805,-51.1058654785156 L232.982162475586,-55.334342956543 L234.677719116211,-51.2308464050293 L228.561935424805,-51.1058654785156 " stroke="#6E6E6E" fill="none" stroke-width="1" stroke-opacity="1" />
  <path d="M248.511901855469,-172.703475952148 L203.459442138672,-64.7024002075195 " stroke="#6E6E6E" fill="none" stroke-width="1" stroke-opacity="1" />
  <path d="M201.26496887207,-59.441764831543 L201.410552978516,-65.5570907592773 L205.508316040039,-63.8477172851563 L201.26496887207,-59.441764831543 " stroke="none" fill="#6E6E6E" fill-rule="evenodd" stroke-width="0" fill-opacity="1" />
  <path d="M201.26496887207,-59.441764831543 L201.410552978516,-65.5570907592773 L205.508316040039,-63.8477172851563 L201.26496887207,-59.441764831543 " stroke="#6E6E6E" fill="none" stroke-width="1" stroke-opacity="1" />
  <path d="M-21.4685192108154,55.1142883300781 L-4.59868955612183,113.034034729004 " stroke="#6E6E6E" fill="none" stroke-width="1" stroke-opacity="1" />
  <path d="M-3.00473022460938,118.506622314453 L-6.73012208938599,113.654830932617 L-2.46725845336914,112.413223266602 L-3.00473022460938,118.506622314453 " stroke="none" fill="#6E6E6E" fill-rule="evenodd" stroke-width="0" fill-opacity="1" />
  <path d="M-3.00473022460938,118.506622314453 L-6.73012208938599,113.654830932617 L-2.46725845336914,112.413223266602 L-3.00473022460938,118.506622314453 " stroke="#6E6E6E" fill="none" stroke-width="1" stroke-opacity="1" />
  <path d="M161.636825561523,55.2516212463379 L14.4842348098755,36.7907066345215 " stroke="#6E6E6E" fill="none" stroke-width="1" stroke-opacity="1" />
  <path d="M8.82856750488281,36.0811805725098 L14.7605762481689,34.5879745483398 L14.2078924179077,38.9934425354004 L8.82856750488281,36.0811805725098 " stroke="none" fill="#6E6E6E" fill-rule="evenodd" stroke-width="0" fill-opacity="1" />
  <path d="M8.82856750488281,36.0811805725098 L14.7605762481689,34.5879745483398 L14.2078924179077,38.9934425354004 L8.82856750488281,36.0811805725098 " stroke="#6E6E6E" fill="none" stroke-width="1" stroke-opacity="1" />
  <path d="M-355.297882080078,69.1720504760742 L-71.2337951660156,36.3645935058594 " stroke="#6E6E6E" fill="none" stroke-width="1" stroke-opacity="1" />
  <path d="M-65.5714340209961,35.7106285095215 L-70.9790878295898,38.5699348449707 L-71.4884948730469,34.159252166748 L-65.5714340209961,35.7106285095215 " stroke="none" fill="#6E6E6E" fill-rule="evenodd" stroke-width="0" fill-opacity="1" />
  <path d="M-65.5714340209961,35.7106285095215 L-70.9790878295898,38.5699348449707 L-71.4884948730469,34.159252166748 L-65.5714340209961,35.7106285095215 " stroke="#6E6E6E" fill="none" stroke-width="1" stroke-opacity="1" />
  <path d="M-313.246063232422,-61.0489082336426 L-255.853942871094,-61.0489082336426 L-255.853958129883,-61.0489082336426 C-251.157379150391,-61.0489158630371 -247.350021362305,-57.2415809631348 -247.350021362305,-52.5449752807617 C-247.350021362305,-52.5449752807617 -247.350021362305,-52.5449714660645 -247.350021362305,-52.5449714660645 L-247.350006103516,-52.5449714660645 L-247.350006103516,-22.1528434753418 L-247.350021362305,-22.1528511047363 C-247.350021362305,-17.4562568664551 -251.157348632813,-13.6489143371582 -255.853942871094,-13.6489105224609 L-255.853942871094,-13.6489105224609 L-313.246063232422,-13.6489105224609 L-313.246063232422,-13.6489105224609 C-317.942657470703,-13.6489105224609 -321.75,-17.4562492370605 -321.75,-22.1528434753418 L-321.75,-52.5449714660645 L-321.750030517578,-52.5449676513672 C-321.750030517578,-57.2415618896484 -317.942687988281,-61.0489082336426 -313.24609375,-61.0489120483398 " stroke="none" fill="#F2E279" fill-rule="evenodd" stroke-width="0" fill-opacity="1" />
  <text x="2.28352236747742" y="29.9967193603516" dx="0" dy="0" font-family="Arial" font-size="8.99999973177911pt" fill="#000000" style="text-anchor:start" transform="matrix(0.750000 0.000000 0.000000 0.750000 -321.75 -61.0489082336426)">Generate Points </text>
  <text x="14.9528551101685" y="43.7967185974121" dx="0" dy="0" font-family="Arial" font-size="8.99999973177911pt" fill="#000000" style="text-anchor:start" transform="matrix(0.750000 0.000000 0.000000 0.750000 -321.75 -61.0489082336426)">Along Lines</text>
  <path d="M-313.246063232422,-61.0489082336426 L-255.853942871094,-61.0489082336426 L-255.853958129883,-61.0489082336426 C-251.157379150391,-61.0489158630371 -247.350021362305,-57.2415809631348 -247.350021362305,-52.5449752807617 C-247.350021362305,-52.5449752807617 -247.350021362305,-52.5449714660645 -247.350021362305,-52.5449714660645 L-247.350006103516,-52.5449714660645 L-247.350006103516,-22.1528434753418 L-247.350021362305,-22.1528511047363 C-247.350021362305,-17.4562568664551 -251.157348632813,-13.6489143371582 -255.853942871094,-13.6489105224609 L-255.853942871094,-13.6489105224609 L-313.246063232422,-13.6489105224609 L-313.246063232422,-13.6489105224609 C-317.942657470703,-13.6489105224609 -321.75,-17.4562492370605 -321.75,-22.1528434753418 L-321.75,-52.5449714660645 L-321.750030517578,-52.5449676513672 C-321.750030517578,-57.2415618896484 -317.942687988281,-61.0489082336426 -313.24609375,-61.0489120483398 " stroke="none" fill="none" stroke-width="0.75" stroke-opacity="0" />
  <path d="M-140.207168579102,-84.4917831420898 C-140.207168579102,-71.4026336669922 -156.862167358398,-60.7917785644531 -177.407135009766,-60.7917747497559 C-197.952133178711,-60.7917709350586 -214.607147216797,-71.4026184082031 -214.607162475586,-84.4917602539063 L-214.607162475586,-84.4917602539063 C-214.607177734375,-97.5809097290039 -197.952178955078,-108.191764831543 -177.407196044922,-108.191772460938 C-156.862197875977,-108.191787719727 -140.207183837891,-97.580940246582 -140.207168579102,-84.4917755126953 C-140.207168579102,-84.4917755126953 -140.207168579102,-84.4917755126953 -140.207168579102,-84.4917755126953 " stroke="none" fill="#83CC7C" fill-rule="evenodd" stroke-width="0" fill-opacity="1" />
  <text x="2.61685562133789" y="36.8967208862305" dx="0" dy="0" font-family="Arial" font-size="8.99999973177911pt" fill="#000000" style="text-anchor:start" transform="matrix(0.750000 0.000000 0.000000 0.750000 -214.607147216797 -108.191772460938)">roadseg_Gene</text>
  <text x="78.0048599243164" y="36.8967208862305" dx="0" dy="0" font-family="Arial" font-size="8.99999973177911pt" fill="#000000" style="text-anchor:start" transform="matrix(0.750000 0.000000 0.000000 0.750000 -214.607147216797 -108.191772460938)"> ...</text>
  <path d="M-140.207168579102,-84.4917831420898 C-140.207168579102,-71.4026336669922 -156.862167358398,-60.7917785644531 -177.407135009766,-60.7917747497559 C-197.952133178711,-60.7917709350586 -214.607147216797,-71.4026184082031 -214.607162475586,-84.4917602539063 L-214.607162475586,-84.4917602539063 C-214.607177734375,-97.5809097290039 -197.952178955078,-108.191764831543 -177.407196044922,-108.191772460938 C-156.862197875977,-108.191787719727 -140.207183837891,-97.580940246582 -140.207168579102,-84.4917755126953 C-140.207168579102,-84.4917755126953 -140.207168579102,-84.4917755126953 -140.207168579102,-84.4917755126953 " stroke="none" fill="none" stroke-width="0.75" stroke-opacity="0" />
  <path d="M119.39998626709,-86.3528518676758 C119.39998626709,-73.2637023925781 102.744979858398,-62.6528472900391 82.2000122070313,-62.6528434753418 C61.6550254821777,-62.6528396606445 45.0000114440918,-73.2636871337891 44.9999961853027,-86.3528289794922 L44.9999923706055,-86.3528289794922 C44.9999771118164,-99.4419784545898 61.654972076416,-110.052833557129 82.1999588012695,-110.052841186523 C102.74494934082,-110.052856445313 119.399963378906,-99.442008972168 119.39998626709,-86.3528442382813 C119.39998626709,-86.3528442382813 119.39998626709,-86.3528442382813 119.39998626709,-86.3528442382813 " stroke="none" fill="#83CC7C" fill-rule="evenodd" stroke-width="0" fill-opacity="1" />
  <text x="4.61352252960205" y="36.8967208862305" dx="0" dy="0" font-family="Arial" font-size="8.99999973177911pt" fill="#000000" style="text-anchor:start" transform="matrix(0.750000 0.000000 0.000000 0.750000 45 -110.052841186523)">I_roadseg_Ge</text>
  <text x="76.3315277099609" y="36.8967208862305" dx="0" dy="0" font-family="Arial" font-size="8.99999973177911pt" fill="#000000" style="text-anchor:start" transform="matrix(0.750000 0.000000 0.000000 0.750000 45 -110.052841186523)"> ...</text>
  <path d="M119.39998626709,-86.3528518676758 C119.39998626709,-73.2637023925781 102.744979858398,-62.6528472900391 82.2000122070313,-62.6528434753418 C61.6550254821777,-62.6528396606445 45.0000114440918,-73.2636871337891 44.9999961853027,-86.3528289794922 L44.9999923706055,-86.3528289794922 C44.9999771118164,-99.4419784545898 61.654972076416,-110.052833557129 82.1999588012695,-110.052841186523 C102.74494934082,-110.052856445313 119.399963378906,-99.442008972168 119.39998626709,-86.3528442382813 C119.39998626709,-86.3528442382813 119.39998626709,-86.3528442382813 119.39998626709,-86.3528442382813 " stroke="none" fill="none" stroke-width="0.75" stroke-opacity="0" />
  <path d="M-7.35001373291016,-190.388580322266 C-7.35001373291016,-177.299423217773 -24.0050201416016,-166.688568115234 -44.5499877929688,-166.688568115234 C-65.0949783325195,-166.688568115234 -81.7499923706055,-177.299407958984 -81.7500076293945,-190.388549804688 L-81.7500076293945,-190.388549804688 C-81.7500228881836,-203.47770690918 -65.0950317382813,-214.088562011719 -44.5500373840332,-214.088562011719 C-24.0050468444824,-214.088577270508 -7.35003662109375,-203.477737426758 -7.35001373291016,-190.388565063477 C-7.35001373291016,-190.388565063477 -7.35001373291016,-190.388565063477 -7.35001373291016,-190.388565063477 " stroke="none" fill="#82CAED" fill-rule="evenodd" stroke-width="0" fill-opacity="1" />
  <text x="25.9655227661133" y="36.8967208862305" dx="0" dy="0" font-family="Arial" font-size="8.99999973177911pt" fill="#000000" style="text-anchor:start" transform="matrix(0.750000 0.000000 0.000000 0.750000 -81.75 -214.088562011719)">Feature</text>
  <path d="M-7.35001373291016,-190.388580322266 C-7.35001373291016,-177.299423217773 -24.0050201416016,-166.688568115234 -44.5499877929688,-166.688568115234 C-65.0949783325195,-166.688568115234 -81.7499923706055,-177.299407958984 -81.7500076293945,-190.388549804688 L-81.7500076293945,-190.388549804688 C-81.7500228881836,-203.47770690918 -65.0950317382813,-214.088562011719 -44.5500373840332,-214.088562011719 C-24.0050468444824,-214.088577270508 -7.35003662109375,-203.477737426758 -7.35001373291016,-190.388565063477 C-7.35001373291016,-190.388565063477 -7.35001373291016,-190.388565063477 -7.35001373291016,-190.388565063477 " stroke="none" fill="none" stroke-width="0.75" stroke-opacity="0" />
  <path d="M-332.100036621094,-126.852851867676 C-332.100036621094,-113.763702392578 -348.755035400391,-103.152847290039 -369.299987792969,-103.152847290039 C-389.845001220703,-103.152839660645 -406.5,-113.763687133789 -406.500030517578,-126.852828979492 L-406.500030517578,-126.852828979492 C-406.500030517578,-139.941986083984 -389.845031738281,-150.552841186523 -369.300048828125,-150.552841186523 C-348.755065917969,-150.552856445313 -332.100036621094,-139.942016601563 -332.100036621094,-126.852844238281 C-332.100036621094,-126.852844238281 -332.100036621094,-126.852844238281 -332.100036621094,-126.852844238281 " stroke="none" fill="#70AECC" fill-rule="evenodd" stroke-width="0" fill-opacity="1" />
  <text x="15.2901887893677" y="36.8967208862305" dx="0" dy="0" font-family="Arial" font-size="8.99999973177911pt" fill="#000000" style="text-anchor:start" transform="matrix(0.750000 0.000000 0.000000 0.750000 -406.5 -150.552841186523)">roadseg.shp</text>
  <path d="M-332.100036621094,-126.852851867676 C-332.100036621094,-113.763702392578 -348.755035400391,-103.152847290039 -369.299987792969,-103.152847290039 C-389.845001220703,-103.152839660645 -406.5,-113.763687133789 -406.500030517578,-126.852828979492 L-406.500030517578,-126.852828979492 C-406.500030517578,-139.941986083984 -389.845031738281,-150.552841186523 -369.300048828125,-150.552841186523 C-348.755065917969,-150.552856445313 -332.100036621094,-139.942016601563 -332.100036621094,-126.852844238281 C-332.100036621094,-126.852844238281 -332.100036621094,-126.852844238281 -332.100036621094,-126.852844238281 " stroke="none" fill="none" stroke-width="0.75" stroke-opacity="0" />
  <path d="M-402.600036621094,-39.1028480529785 C-402.600036621094,-26.0137023925781 -419.255035400391,-15.4028472900391 -439.799987792969,-15.4028434753418 C-460.345001220703,-15.4028396606445 -477,-26.0136833190918 -477.000030517578,-39.1028289794922 L-477.000030517578,-39.1028251647949 C-477.000030517578,-52.1919746398926 -460.345031738281,-62.8028335571289 -439.800048828125,-62.8028411865234 C-419.255065917969,-62.8028526306152 -402.600036621094,-52.192008972168 -402.600036621094,-39.1028442382813 C-402.600036621094,-39.1028442382813 -402.600036621094,-39.1028442382813 -402.600036621094,-39.1028442382813 " stroke="none" fill="#70AECC" fill-rule="evenodd" stroke-width="0" fill-opacity="1" />
  <text x="11.9588556289673" y="36.8967208862305" dx="0" dy="0" font-family="Arial" font-size="8.99999973177911pt" fill="#000000" style="text-anchor:start" transform="matrix(0.750000 0.000000 0.000000 0.750000 -477 -62.8028411865234)">new_dem (2)</text>
  <path d="M-402.600036621094,-39.1028480529785 C-402.600036621094,-26.0137023925781 -419.255035400391,-15.4028472900391 -439.799987792969,-15.4028434753418 C-460.345001220703,-15.4028396606445 -477,-26.0136833190918 -477.000030517578,-39.1028289794922 L-477.000030517578,-39.1028251647949 C-477.000030517578,-52.1919746398926 -460.345031738281,-62.8028335571289 -439.800048828125,-62.8028411865234 C-419.255065917969,-62.8028526306152 -402.600036621094,-52.192008972168 -402.600036621094,-39.1028442382813 C-402.600036621094,-39.1028442382813 -402.600036621094,-39.1028442382813 -402.600036621094,-39.1028442382813 " stroke="none" fill="none" stroke-width="0.75" stroke-opacity="0" />
  <path d="M-228.292343139648,-193.645202636719 C-228.292343139648,-180.556045532227 -244.947341918945,-169.945190429688 -265.492309570313,-169.945190429688 C-286.037322998047,-169.945190429688 -302.692321777344,-180.556030273438 -302.692352294922,-193.645172119141 L-302.692352294922,-193.645172119141 C-302.692352294922,-206.734329223633 -286.037353515625,-217.345184326172 -265.492370605469,-217.345184326172 C-244.947372436523,-217.345199584961 -228.292358398438,-206.734359741211 -228.292343139648,-193.64518737793 C-228.292343139648,-193.64518737793 -228.292343139648,-193.64518737793 -228.292343139648,-193.64518737793 " stroke="none" fill="#52C0CC" fill-rule="evenodd" stroke-width="0" fill-opacity="1" />
  <text x="22.6328563690186" y="36.8967208862305" dx="0" dy="0" font-family="Arial" font-size="8.99999973177911pt" fill="#000000" style="text-anchor:start" transform="matrix(0.750000 0.000000 0.000000 0.750000 -302.692321777344 -217.345184326172)">Distance</text>
  <path d="M-228.292343139648,-193.645202636719 C-228.292343139648,-180.556045532227 -244.947341918945,-169.945190429688 -265.492309570313,-169.945190429688 C-286.037322998047,-169.945190429688 -302.692321777344,-180.556030273438 -302.692352294922,-193.645172119141 L-302.692352294922,-193.645172119141 C-302.692352294922,-206.734329223633 -286.037353515625,-217.345184326172 -265.492370605469,-217.345184326172 C-244.947372436523,-217.345199584961 -228.292358398438,-206.734359741211 -228.292343139648,-193.64518737793 C-228.292343139648,-193.64518737793 -228.292343139648,-193.64518737793 -228.292343139648,-193.64518737793 " stroke="none" fill="none" stroke-width="0.75" stroke-opacity="0" />
  <path d="M162.682510375977,-59.441764831543 L220.074630737305,-59.441764831543 L220.074615478516,-59.441764831543 C224.771194458008,-59.4417724609375 228.578552246094,-55.6344375610352 228.578552246094,-50.9378318786621 C228.578552246094,-50.9378318786621 228.578552246094,-50.9378280639648 228.578552246094,-50.9378280639648 L228.578567504883,-50.9378280639648 L228.578567504883,-20.5457000732422 L228.578552246094,-20.5457077026367 C228.578552246094,-15.8491134643555 224.771224975586,-12.0417709350586 220.074630737305,-12.0417671203613 L220.074630737305,-12.0417671203613 L162.682510375977,-12.0417671203613 L162.682510375977,-12.0417671203613 C157.985916137695,-12.0417671203613 154.178573608398,-15.8491058349609 154.178573608398,-20.5457000732422 L154.178573608398,-50.9378280639648 L154.178558349609,-50.9378242492676 C154.178558349609,-55.6344184875488 157.985900878906,-59.441764831543 162.682495117188,-59.4417686462402 " stroke="none" fill="#F2E279" fill-rule="evenodd" stroke-width="0" fill-opacity="1" />
  <text x="24.8508567810059" y="36.8967208862305" dx="0" dy="0" font-family="Arial" font-size="8.99999973177911pt" fill="#000000" style="text-anchor:start" transform="matrix(0.750000 0.000000 0.000000 0.750000 154.178573608398 -59.441764831543)">Visibility</text>
  <path d="M162.682510375977,-59.441764831543 L220.074630737305,-59.441764831543 L220.074615478516,-59.441764831543 C224.771194458008,-59.4417724609375 228.578552246094,-55.6344375610352 228.578552246094,-50.9378318786621 C228.578552246094,-50.9378318786621 228.578552246094,-50.9378280639648 228.578552246094,-50.9378280639648 L228.578567504883,-50.9378280639648 L228.578567504883,-20.5457000732422 L228.578552246094,-20.5457077026367 C228.578552246094,-15.8491134643555 224.771224975586,-12.0417709350586 220.074630737305,-12.0417671203613 L220.074630737305,-12.0417671203613 L162.682510375977,-12.0417671203613 L162.682510375977,-12.0417671203613 C157.985916137695,-12.0417671203613 154.178573608398,-15.8491058349609 154.178573608398,-20.5457000732422 L154.178573608398,-50.9378280639648 L154.178558349609,-50.9378242492676 C154.178558349609,-55.6344184875488 157.985900878906,-59.441764831543 162.682495117188,-59.4417686462402 " stroke="none" fill="none" stroke-width="0.75" stroke-opacity="0" />
  <path d="M235.328552246094,59.8296585083008 C235.328552246094,72.9188003540039 218.673553466797,83.529655456543 198.12858581543,83.5296630859375 C177.583587646484,83.5296630859375 160.928573608398,72.9188232421875 160.928558349609,59.8296775817871 L160.928558349609,59.8296813964844 C160.92854309082,46.7405319213867 177.583541870117,36.1296730041504 198.128524780273,36.1296653747559 C218.673522949219,36.1296539306641 235.328536987305,46.7404975891113 235.328552246094,59.829662322998 C235.328552246094,59.829662322998 235.328552246094,59.829662322998 235.328552246094,59.829662322998 " stroke="none" fill="#83CC7C" fill-rule="evenodd" stroke-width="0" fill-opacity="1" />
  <text x="8.62818908691406" y="36.8967208862305" dx="0" dy="0" font-family="Arial" font-size="8.99999973177911pt" fill="#000000" style="text-anchor:start" transform="matrix(0.750000 0.000000 0.000000 0.750000 160.928573608398 36.1296653747559)">vis%Feature%</text>
  <path d="M235.328552246094,59.8296585083008 C235.328552246094,72.9188003540039 218.673553466797,83.529655456543 198.12858581543,83.5296630859375 C177.583587646484,83.5296630859375 160.928573608398,72.9188232421875 160.928558349609,59.8296775817871 L160.928558349609,59.8296813964844 C160.92854309082,46.7405319213867 177.583541870117,36.1296730041504 198.128524780273,36.1296653747559 C218.673522949219,36.1296539306641 235.328536987305,46.7404975891113 235.328552246094,59.829662322998 C235.328552246094,59.829662322998 235.328552246094,59.829662322998 235.328552246094,59.829662322998 " stroke="none" fill="none" stroke-width="0.75" stroke-opacity="0" />
  <path d="M358.542816162109,106.972511291504 C358.542816162109,120.061660766602 341.887817382813,130.672515869141 321.342864990234,130.672515869141 C300.7978515625,130.672515869141 284.142852783203,120.061676025391 284.142822265625,106.972534179688 L284.142822265625,106.972534179688 C284.142822265625,93.8833847045898 300.797821044922,83.2725296020508 321.342803955078,83.2725219726563 C341.887786865234,83.2725067138672 358.542816162109,93.8833541870117 358.542816162109,106.972518920898 C358.542816162109,106.972518920898 358.542816162109,106.972518920898 358.542816162109,106.972518920898 " stroke="none" fill="#83CC7C" fill-rule="evenodd" stroke-width="0" fill-opacity="1" />
  <text x="37.3055229187012" y="36.8967208862305" dx="0" dy="0" font-family="Arial" font-size="8.99999973177911pt" fill="#000000" style="text-anchor:start" transform="matrix(0.750000 0.000000 0.000000 0.750000 284.142852783203 83.2725219726563)">grlv</text>
  <path d="M358.542816162109,106.972511291504 C358.542816162109,120.061660766602 341.887817382813,130.672515869141 321.342864990234,130.672515869141 C300.7978515625,130.672515869141 284.142852783203,120.061676025391 284.142822265625,106.972534179688 L284.142822265625,106.972534179688 C284.142822265625,93.8833847045898 300.797821044922,83.2725296020508 321.342803955078,83.2725219726563 C341.887786865234,83.2725067138672 358.542816162109,93.8833541870117 358.542816162109,106.972518920898 C358.542816162109,106.972518920898 358.542816162109,106.972518920898 358.542816162109,106.972518920898 " stroke="none" fill="none" stroke-width="0.75" stroke-opacity="0" />
  <path d="M295.230651855469,-195.522171020508 C295.230651855469,-182.433013916016 278.575653076172,-171.822158813477 258.030700683594,-171.822158813477 C237.485702514648,-171.822158813477 220.830688476563,-182.432998657227 220.830673217773,-195.52214050293 L220.830673217773,-195.52214050293 C220.830657958984,-208.611297607422 237.485656738281,-219.222152709961 258.030639648438,-219.222152709961 C278.575622558594,-219.22216796875 295.230651855469,-208.611328125 295.230651855469,-195.522155761719 C295.230651855469,-195.522155761719 295.230651855469,-195.522155761719 295.230651855469,-195.522155761719 " stroke="none" fill="#52C0CC" fill-rule="evenodd" stroke-width="0" fill-opacity="1" />
  <text x="3.40685558319092" y="36.8967208862305" dx="0" dy="0" font-family="Arial" font-size="8.99999973177911pt" fill="#000000" style="text-anchor:start" transform="matrix(0.750000 0.000000 0.000000 0.750000 220.830688476563 -219.222152709961)">Observer Offset</text>
  <path d="M295.230651855469,-195.522171020508 C295.230651855469,-182.433013916016 278.575653076172,-171.822158813477 258.030700683594,-171.822158813477 C237.485702514648,-171.822158813477 220.830688476563,-182.432998657227 220.830673217773,-195.52214050293 L220.830673217773,-195.52214050293 C220.830657958984,-208.611297607422 237.485656738281,-219.222152709961 258.030639648438,-219.222152709961 C278.575622558594,-219.22216796875 295.230651855469,-208.611328125 295.230651855469,-195.522155761719 C295.230651855469,-195.522155761719 295.230651855469,-195.522155761719 295.230651855469,-195.522155761719 " stroke="none" fill="none" stroke-width="0.75" stroke-opacity="0" />
  <path d="M370.230651855469,-94.2721633911133 C370.230651855469,-81.1830139160156 353.575653076172,-70.5721588134766 333.030700683594,-70.5721588134766 C312.485687255859,-70.572151184082 295.830688476563,-81.1829986572266 295.830657958984,-94.2721405029297 L295.830657958984,-94.2721405029297 C295.830657958984,-107.361289978027 312.485656738281,-117.972145080566 333.030639648438,-117.972152709961 C353.575622558594,-117.97216796875 370.230651855469,-107.361320495605 370.230651855469,-94.2721557617188 C370.230651855469,-94.2721557617188 370.230651855469,-94.2721557617188 370.230651855469,-94.2721557617188 " stroke="none" fill="#52C0CC" fill-rule="evenodd" stroke-width="0" fill-opacity="1" />
  <text x="8.06618881225586" y="36.8967208862305" dx="0" dy="0" font-family="Arial" font-size="8.99999973177911pt" fill="#000000" style="text-anchor:start" transform="matrix(0.750000 0.000000 0.000000 0.750000 295.830688476563 -117.972152709961)">Surface Offset</text>
  <path d="M370.230651855469,-94.2721633911133 C370.230651855469,-81.1830139160156 353.575653076172,-70.5721588134766 333.030700683594,-70.5721588134766 C312.485687255859,-70.572151184082 295.830688476563,-81.1829986572266 295.830657958984,-94.2721405029297 L295.830657958984,-94.2721405029297 C295.830657958984,-107.361289978027 312.485656738281,-117.972145080566 333.030639648438,-117.972152709961 C353.575622558594,-117.97216796875 370.230651855469,-107.361320495605 370.230651855469,-94.2721557617188 C370.230651855469,-94.2721557617188 370.230651855469,-94.2721557617188 370.230651855469,-94.2721557617188 " stroke="none" fill="none" stroke-width="0.75" stroke-opacity="0" />
  <path d="M-57.0674896240234,7.7142858505249 L0.324630737304688,7.7142858505249 L0.324615478515625,7.7142858505249 C5.02120208740234,7.71427869796753 8.82855987548828,11.521614074707 8.82855987548828,16.2182197570801 C8.82855987548828,16.2182216644287 8.82855987548828,16.2182235717773 8.82855987548828,16.2182235717773 L8.82856750488281,16.2182216644287 L8.82856750488281,46.6103477478027 L8.82855987548828,46.6103401184082 C8.82855987548828,51.3069343566895 5.02122497558594,55.1142768859863 0.324630737304688,55.1142807006836 L0.324630737304688,55.1142807006836 L-57.0674896240234,55.1142807006836 L-57.0674858093262,55.1142807006836 C-61.7640800476074,55.1142807006836 -65.5714263916016,51.306941986084 -65.5714263916016,46.6103477478027 L-65.5714263916016,16.2182216644287 L-65.5714340209961,16.2182273864746 C-65.5714340209961,11.5216331481934 -61.7640953063965,7.71428918838501 -57.0675010681152,7.71428489685059 " stroke="none" fill="#F2E279" fill-rule="evenodd" stroke-width="0" fill-opacity="1" />
  <text x="25.6195220947266" y="36.8967208862305" dx="0" dy="0" font-family="Arial" font-size="8.99999973177911pt" fill="#000000" style="text-anchor:start" transform="matrix(0.750000 0.000000 0.000000 0.750000 -65.5714263916016 7.7142858505249)">Append</text>
  <path d="M-57.0674896240234,7.7142858505249 L0.324630737304688,7.7142858505249 L0.324615478515625,7.7142858505249 C5.02120208740234,7.71427869796753 8.82855987548828,11.521614074707 8.82855987548828,16.2182197570801 C8.82855987548828,16.2182216644287 8.82855987548828,16.2182235717773 8.82855987548828,16.2182235717773 L8.82856750488281,16.2182216644287 L8.82856750488281,46.6103477478027 L8.82855987548828,46.6103401184082 C8.82855987548828,51.3069343566895 5.02122497558594,55.1142768859863 0.324630737304688,55.1142807006836 L0.324630737304688,55.1142807006836 L-57.0674896240234,55.1142807006836 L-57.0674858093262,55.1142807006836 C-61.7640800476074,55.1142807006836 -65.5714263916016,51.306941986084 -65.5714263916016,46.6103477478027 L-65.5714263916016,16.2182216644287 L-65.5714340209961,16.2182273864746 C-65.5714340209961,11.5216331481934 -61.7640953063965,7.71428918838501 -57.0675010681152,7.71428489685059 " stroke="none" fill="none" stroke-width="0.75" stroke-opacity="0" />
  <path d="M40.9714126586914,141.771408081055 C40.9714126586914,154.860565185547 24.31640625,165.471420288086 3.77143859863281,165.471420288086 C-16.7735462188721,165.471420288086 -33.4285621643066,154.860580444336 -33.4285774230957,141.771438598633 L-33.428581237793,141.771438598633 C-33.428596496582,128.682281494141 -16.7735996246338,118.071434020996 3.77138900756836,118.071426391602 C24.3163795471191,118.071411132813 40.9713897705078,128.682250976563 40.9714126586914,141.771423339844 C40.9714126586914,141.771423339844 40.9714126586914,141.771423339844 40.9714126586914,141.771423339844 " stroke="none" fill="#83CC7C" fill-rule="evenodd" stroke-width="0" fill-opacity="1" />
  <text x="1.62218904495239" y="36.8967208862305" dx="0" dy="0" font-family="Arial" font-size="8.99999973177911pt" fill="#000000" style="text-anchor:start" transform="matrix(0.750000 0.000000 0.000000 0.750000 -33.4285736083984 118.071426391602)">Finaloutput.tif (4)</text>
  <path d="M40.9714126586914,141.771408081055 C40.9714126586914,154.860565185547 24.31640625,165.471420288086 3.77143859863281,165.471420288086 C-16.7735462188721,165.471420288086 -33.4285621643066,154.860580444336 -33.4285774230957,141.771438598633 L-33.428581237793,141.771438598633 C-33.428596496582,128.682281494141 -16.7735996246338,118.071434020996 3.77138900756836,118.071426391602 C24.3163795471191,118.071411132813 40.9713897705078,128.682250976563 40.9714126586914,141.771423339844 C40.9714126586914,141.771423339844 40.9714126586914,141.771423339844 40.9714126586914,141.771423339844 " stroke="none" fill="none" stroke-width="0.75" stroke-opacity="0" />
  <path d="M-354.674377441406,73.3963775634766 C-354.674377441406,86.4855270385742 -371.329376220703,97.0963821411133 -391.874328613281,97.0963821411133 C-412.419342041016,97.0963897705078 -429.074340820313,86.4855422973633 -429.074371337891,73.3964004516602 L-429.074371337891,73.3964004516602 C-429.074371337891,60.3072547912598 -412.419372558594,49.6963958740234 -391.874389648438,49.6963882446289 C-371.329406738281,49.6963768005371 -354.674377441406,60.3072204589844 -354.674377441406,73.3963851928711 C-354.674377441406,73.3963851928711 -354.674377441406,73.3963851928711 -354.674377441406,73.3963851928711 " stroke="none" fill="#70AECC" fill-rule="evenodd" stroke-width="0" fill-opacity="1" />
  <text x="1.62218904495239" y="36.8967208862305" dx="0" dy="0" font-family="Arial" font-size="8.99999973177911pt" fill="#000000" style="text-anchor:start" transform="matrix(0.750000 0.000000 0.000000 0.750000 -429.074340820313 49.6963882446289)">Finaloutput.tif (3)</text>
  <path d="M-354.674377441406,73.3963775634766 C-354.674377441406,86.4855270385742 -371.329376220703,97.0963821411133 -391.874328613281,97.0963821411133 C-412.419342041016,97.0963897705078 -429.074340820313,86.4855422973633 -429.074371337891,73.3964004516602 L-429.074371337891,73.3964004516602 C-429.074371337891,60.3072547912598 -412.419372558594,49.6963958740234 -391.874389648438,49.6963882446289 C-371.329406738281,49.6963768005371 -354.674377441406,60.3072204589844 -354.674377441406,73.3963851928711 C-354.674377441406,73.3963851928711 -354.674377441406,73.3963851928711 -354.674377441406,73.3963851928711 " stroke="none" fill="none" stroke-width="0.75" stroke-opacity="0" />
  <path d="M0.149995803833008,-207.526077270508 C0.149995803833008,-203.383941650391 -3.20786762237549,-200.026077270508 -7.34999895095825,-200.026077270508 C-11.492133140564,-200.026062011719 -14.8499994277954,-203.383926391602 -14.8500022888184,-207.526062011719 L-14.8500032424927,-207.526062011719 C-14.8500070571899,-211.668197631836 -11.4921445846558,-215.026062011719 -7.35001516342163,-215.026062011719 C-3.2078800201416,-215.026077270508 0.149989128112793,-211.668212890625 0.149995803833008,-207.526077270508 C0.149995803833008,-207.526077270508 0.149995803833008,-207.526062011719 0.149995803833008,-207.526062011719 " stroke="none" fill="none" fill-rule="evenodd" stroke-width="0" fill-opacity="0" />
  <text x="2.70618915557861" y="15.2967185974121" dx="0" dy="0" font-family="Arial" font-size="8.99999973177911pt" fill="#555555" style="text-anchor:start" font-weight="bold" transform="matrix(0.750000 0.000000 0.000000 0.750000 -14.8500022888184 -215.026062011719)">P</text>
  <path d="M0.149995803833008,-207.526077270508 C0.149995803833008,-203.383941650391 -3.20786762237549,-200.026077270508 -7.34999895095825,-200.026077270508 C-11.492133140564,-200.026062011719 -14.8499994277954,-203.383926391602 -14.8500022888184,-207.526062011719 L-14.8500032424927,-207.526062011719 C-14.8500070571899,-211.668197631836 -11.4921445846558,-215.026062011719 -7.35001516342163,-215.026062011719 C-3.2078800201416,-215.026077270508 0.149989128112793,-211.668212890625 0.149995803833008,-207.526077270508 C0.149995803833008,-207.526077270508 0.149995803833008,-207.526062011719 0.149995803833008,-207.526062011719 " stroke="none" fill="none" stroke-width="0.75" stroke-opacity="0" />
  <path d="M-77.1428527832031,-88.0303802490234 L-58.542854309082,-64.3303833007813 L-21.3428535461426,-64.3303833007813 L-2.74285888671875,-88.0303802490234 L-21.3428535461426,-111.730377197266 L-58.542854309082,-111.730377197266 L-77.1428527832031,-88.0303802490234 " stroke="none" fill="#F0B871" fill-rule="evenodd" stroke-width="0" fill-opacity="1" />
  <text x="9.28685569763184" y="29.9967193603516" dx="0" dy="0" font-family="Arial" font-size="8.99999973177911pt" fill="#000000" style="text-anchor:start" transform="matrix(0.750000 0.000000 0.000000 0.750000 -77.1428527832031 -111.730377197266)">Iterate Feature </text>
  <text x="21.6261901855469" y="43.7967185974121" dx="0" dy="0" font-family="Arial" font-size="8.99999973177911pt" fill="#000000" style="text-anchor:start" transform="matrix(0.750000 0.000000 0.000000 0.750000 -77.1428527832031 -111.730377197266)">Selection</text>
  <path d="M-77.1428527832031,-88.0303802490234 L-58.542854309082,-64.3303833007813 L-21.3428535461426,-64.3303833007813 L-2.74285888671875,-88.0303802490234 L-21.3428535461426,-111.730377197266 L-58.542854309082,-111.730377197266 L-77.1428527832031,-88.0303802490234 " stroke="none" fill="none" stroke-width="0.75" stroke-opacity="0" />
</svg>